<svg width="9" height="8" viewBox="0 0 9 8" fill="none" xmlns="http://www.w3.org/2000/svg">
<path d="M8.56249 4.02451C8.56249 1.80151 6.77149 -0.000488281 4.56249 -0.000488281C2.35249 1.17188e-05 0.561493 1.80151 0.561493 4.02501C0.561493 6.03351 2.02449 7.69851 3.93649 8.00051V5.18801H2.92149V4.02501H3.93749V3.13751C3.93749 2.12901 4.53499 1.57201 5.44849 1.57201C5.88649 1.57201 6.34399 1.65051 6.34399 1.65051V2.64051H5.83949C5.34299 2.64051 5.18799 2.95101 5.18799 3.26951V4.02451H6.29699L6.11999 5.18751H5.18749V8.00001C7.09949 7.69801 8.56249 6.03301 8.56249 4.02451Z" fill="black"/>
</svg>
