<svg width="8" height="8" viewBox="0 0 8 8" fill="none" xmlns="http://www.w3.org/2000/svg">
<path d="M7.88188 3.27902C7.92852 3.5475 7.95177 3.81952 7.95138 4.09202C7.95138 5.30902 7.51638 6.33802 6.75938 7.03452H6.76038C6.09837 7.64602 5.18837 8.00002 4.10938 8.00002C3.04851 8.00002 2.03109 7.57859 1.28095 6.82845C0.530802 6.0783 0.109375 5.06089 0.109375 4.00002C0.109375 2.93915 0.530802 1.92174 1.28095 1.17159C2.03109 0.421447 3.04851 1.98027e-05 4.10938 1.98027e-05C5.10234 -0.0116094 6.0613 0.361436 6.78538 1.04102L5.64337 2.18302C5.23056 1.78951 4.67962 1.57402 4.10938 1.58302C3.06588 1.58302 2.17937 2.28702 1.86337 3.23502C1.69583 3.73177 1.69583 4.26977 1.86337 4.76652H1.86487C2.18237 5.71302 3.06738 6.41702 4.11088 6.41702C4.64988 6.41702 5.11287 6.27902 5.47188 6.03502H5.47038C5.67883 5.89692 5.85714 5.71802 5.99455 5.50911C6.13196 5.3002 6.22562 5.06562 6.26988 4.81952H4.10938V3.27952L7.88188 3.27902Z" fill="black"/>
</svg>
