<svg width="9" height="8" viewBox="0 0 9 8" fill="none" xmlns="http://www.w3.org/2000/svg">
<path d="M0.34375 0.573C0.34375 0.2565 0.60675 0 0.93125 0H7.75625C8.08075 0 8.34375 0.2565 8.34375 0.573V7.427C8.34375 7.7435 8.08075 8 7.75625 8H0.93125C0.60675 8 0.34375 7.7435 0.34375 7.427V0.573ZM2.81525 6.697V3.0845H1.61475V6.697H2.81525ZM2.21525 2.591C2.63375 2.591 2.89425 2.314 2.89425 1.967C2.88675 1.6125 2.63425 1.343 2.22325 1.343C1.81225 1.343 1.54375 1.613 1.54375 1.967C1.54375 2.314 1.80425 2.591 2.20725 2.591H2.21525ZM4.66925 6.697V4.6795C4.66925 4.5715 4.67725 4.4635 4.70925 4.3865C4.79575 4.171 4.99325 3.9475 5.32525 3.9475C5.75975 3.9475 5.93325 4.2785 5.93325 4.7645V6.697H7.13375V4.625C7.13375 3.515 6.54175 2.999 5.75175 2.999C5.11475 2.999 4.82925 3.349 4.66925 3.5955V3.608H4.66125C4.66391 3.60383 4.66657 3.59966 4.66925 3.5955V3.0845H3.46925C3.48425 3.4235 3.46925 6.697 3.46925 6.697H4.66925Z" fill="black"/>
</svg>
